<svg t="1692669196317" class="icon" viewBox="0 0 1024 1024" version="1.1" xmlns="http://www.w3.org/2000/svg" p-id="2574" width="200" height="200"><path d="M494.933333 362.666667H256c-17.066667 0-32-14.933333-32-32S238.933333 298.666667 256 298.666667h238.933333c17.066667 0 32 14.933333 32 32 2.133333 17.066667-12.8 32-32 32zM409.6 544H256c-17.066667 0-32-14.933333-32-32s14.933333-32 32-32h153.6c17.066667 0 32 14.933333 32 32s-12.8 32-32 32zM409.6 725.333333H256c-17.066667 0-32-14.933333-32-32S238.933333 661.333333 256 661.333333h153.6c17.066667 0 32 14.933333 32 32s-12.8 32-32 32z" fill="#0000FF" p-id="2575"></path><path d="M341.333333 938.666667h-100.266666c-76.8 0-138.666667-61.866667-138.666667-138.666667v-576C102.4 147.2 164.266667 85.333333 241.066667 85.333333h541.866666c76.8 0 138.666667 61.866667 138.666667 138.666667V341.333333c0 17.066667-14.933333 32-32 32s-32-14.933333-32-32v-117.333333c0-40.533333-34.133333-74.666667-74.666667-74.666667H241.066667c-40.533333 0-74.666667 34.133333-74.666667 74.666667v576c0 40.533333 34.133333 74.666667 74.666667 74.666667H341.333333c17.066667 0 32 14.933333 32 32S358.4 938.666667 341.333333 938.666667z" fill="#0000FF" p-id="2576"></path><path d="M889.6 938.666667c-17.066667 0-32-14.933333-32-32 0-100.266667-81.066667-181.333333-181.333333-181.333334s-181.333333 81.066667-181.333334 181.333334c0 17.066667-14.933333 32-32 32s-32-14.933333-32-32c0-136.533333 108.8-245.333333 245.333334-245.333334s245.333333 108.8 245.333333 245.333334c0 17.066667-14.933333 32-32 32z" fill="#0000FF" p-id="2577"></path><path d="M676.266667 725.333333c-85.333333 0-153.6-68.266667-153.6-153.6s68.266667-153.6 153.6-153.6 153.6 68.266667 153.6 153.6-68.266667 153.6-153.6 153.6z m0-245.333333c-49.066667 0-89.6 40.533333-89.6 91.733333 0 49.066667 40.533333 89.6 91.733333 89.6s89.6-40.533333 89.6-91.733333c-2.133333-49.066667-40.533333-89.6-91.733333-89.6z"  p-id="2578"></path></svg>