<svg t="1692669628939" class="icon" viewBox="0 0 1024 1024" version="1.1" xmlns="http://www.w3.org/2000/svg" p-id="3378" width="200" height="200"><path d="M102.2 354.3h118.7c14.3 0 25.8-12.1 25.8-26.8 0-14.8-11.6-26.9-25.8-26.9H102.2c-14.3 0-25.8 12.1-25.8 26.9 0 14.7 11.6 26.8 25.8 26.8z m0 192.5h118.7c14.3 0 25.8-12.1 25.8-26.8 0-7.2-2.7-13.9-7.6-19-4.9-5.1-11.4-7.8-18.2-7.8H102.2c-14.3 0-25.8 12.1-25.8 26.9 0 14.9 11.6 26.7 25.8 26.7z m144.6 165.1c0-7.2-2.7-13.9-7.6-19-4.9-5.1-11.4-7.8-18.2-7.8H102.2c-14.3 0-25.8 12.1-25.8 26.9 0 14.8 11.6 26.8 25.8 26.8h118.7c14.3 0 25.9-12.1 25.9-26.9z m82.9 27.3l-3.4 8.5H384l1.7-3.2c27-50.9 90.5-88.2 154.3-90.6h13.3c63.8 2.4 127.4 39.6 154.3 90.6l1.7 3.2H767l-3.4-8.5c-10.5-25.4-28.8-50.4-52.9-72.1-19-17-41.6-32-65.2-43.4 23.3-15.1 43.2-35.6 57.4-59.2 16.9-28.1 25.8-60.2 25.8-93.1 0-100.5-81.8-182.3-182.3-182.3S364 370.9 364 471.4c0 32.9 9 65.2 25.9 93.2 14.3 23.6 34.3 44.1 57.7 59.2-23.6 11.5-46 26.3-65 43.4-24.3 21.7-42.5 46.5-52.9 72zM546 342.1c71.3 0 129.3 58 129.3 129.3s-58 129.3-129.3 129.3c-71.3 0-129.3-58-129.3-129.3 0-71.2 58.1-129.3 129.3-129.3z" fill="#00B1FF" p-id="3379"></path><path d="M854.1 65.8H238c-53.8 0-97.5 43.8-97.5 97.5v73h52.3v-62.1c0-37 19.6-56.4 56.4-56.4h594.5c37 0 56.4 19.6 56.4 56.4v691.5c0 37-19.6 56.5-56.4 56.5H249.3c-37 0-56.4-19.6-56.4-56.5v-62.1h-52.3v72c0 53.8 43.8 97.5 97.5 97.5h616.1c53.8 0 97.5-43.8 97.5-97.5v-712c-0.1-54-43.9-97.8-97.6-97.8z" p-id="3380"></path></svg>