<svg t="1692669280759" class="icon" viewBox="0 0 1024 1024" version="1.1" xmlns="http://www.w3.org/2000/svg" p-id="2738" width="200" height="200"><path d="M192 160a32 32 0 0 0-32 32v192a32 32 0 0 0 32 32h192a32 32 0 0 0 32-32V192a32 32 0 0 0-32-32H192m0-64h192a96 96 0 0 1 96 96v192a96 96 0 0 1-96 96H192a96 96 0 0 1-96-96V192a96 96 0 0 1 96-96zM192 624a32 32 0 0 0-32 32v192a32 32 0 0 0 32 32h192a32 32 0 0 0 32-32V656a32 32 0 0 0-32-32H192m0-64h192a96 96 0 0 1 96 96v192a96 96 0 0 1-96 96H192a96 96 0 0 1-96-96V656a96 96 0 0 1 96-96zM656 160a32 32 0 0 0-32 32v192a32 32 0 0 0 32 32h192a32 32 0 0 0 32-32V192a32 32 0 0 0-32-32H656m0-64h192a96 96 0 0 1 96 96v192a96 96 0 0 1-96 96H656a96 96 0 0 1-96-96V192a96 96 0 0 1 96-96zM560 944.832a32 32 0 0 1-32-32v-180.16a32 32 0 0 1 64 0v180.16a32 32 0 0 1-32 32zM672 944.832a32 32 0 0 1-32-32v-180.16a32 32 0 0 1 64 0v180.16a32 32 0 0 1-32 32zM784 944.816a32 32 0 0 1-32-32V584a32 32 0 0 1 64 0v328.832a32 32 0 0 1-32 31.984zM896 944.816a32 32 0 0 1-32-32V584a32 32 0 0 1 64 0v328.832a32 32 0 0 1-32 31.984z" p-id="2739"></path></svg>