<svg t="1692668991822" class="icon" viewBox="0 0 1024 1024" version="1.1" xmlns="http://www.w3.org/2000/svg" p-id="2420" width="200" height="200"><path d="M858.396444 865.621333a111.047111 111.047111 0 1 1-222.094222 0v-223.800889a213.447111 213.447111 0 0 1 36.750222-378.424888 26.453333 26.453333 0 0 1 36.352 24.576v89.486222a43.121778 43.121778 0 1 0 86.243556 0V288.028444c0-18.773333 18.944-31.516444 36.295111-24.576A213.447111 213.447111 0 0 1 967.111111 462.506667c0 76.856889-42.154667 148.138667-108.714667 186.026666v217.088z m-169.073777 0.056889a58.026667 58.026667 0 0 0 116.110222 0v-250.083555l15.303111-7.168a162.133333 162.133333 0 0 0 93.411556-146.033778c0-52.167111-24.746667-99.726222-65.479112-129.592889v44.714667a96.142222 96.142222 0 1 1-192.227555 0V332.8a160.256 160.256 0 0 0-65.479111 129.592889c0 58.538667 32.426667 112.64 84.593778 141.198222l13.767111 7.566222v254.520889z" fill="#333333" p-id="2421"></path><path d="M660.764444 841.614222h-550.115555A53.930667 53.930667 0 0 1 56.888889 787.683556V167.822222c0-29.809778 24.064-54.044444 53.76-54.044444h583.338667a30.151111 30.151111 0 0 1 0 60.472889H116.963556v607.004444h543.857777a30.151111 30.151111 0 0 1 0 60.359111z" fill="#333333" p-id="2422"></path><path d="M271.473778 350.321778H370.915556a30.151111 30.151111 0 0 1 0 60.359111H271.473778a30.151111 30.151111 0 1 1 0-60.302222z m0 171.235555h143.701333a30.151111 30.151111 0 1 1 0 60.416H271.473778a30.151111 30.151111 0 1 1 0-60.416z" fill="#333333" p-id="2423"></path><path d="M663.438222 144.099556a30.321778 30.321778 0 0 1 60.643556 0V204.8a30.321778 30.321778 0 0 1-60.643556 0V144.099556z"  p-id="2424"></path></svg>