<svg t="1692668662884" class="icon" viewBox="0 0 1024 1024" version="1.1" xmlns="http://www.w3.org/2000/svg" p-id="2258" width="200" height="200"><path d="M957.44 373.76c-5.12-15.36-20.48-25.6-40.96-25.6-51.2 0-92.16-40.96-92.16-92.16 0-15.36 5.12-25.6 10.24-40.96s5.12-35.84-10.24-46.08A486.4 486.4 0 0 0 629.76 61.44c-15.36-5.12-35.84 5.12-46.08 20.48-15.36 30.72-46.08 51.2-81.92 51.2s-66.56-20.48-81.92-51.2c5.12-15.36-15.36-20.48-30.72-20.48-71.68 20.48-138.24 61.44-194.56 107.52-10.24 15.36-15.36 30.72-5.12 46.08 5.12 15.36 5.12 25.6 5.12 40.96 0 51.2-40.96 92.16-92.16 92.16-15.36-5.12-30.72 10.24-35.84 25.6C56.32 419.84 46.08 465.92 46.08 512c0 30.72 5.12 61.44 10.24 92.16 5.12 20.48 20.48 30.72 40.96 30.72 51.2-5.12 97.28 35.84 97.28 87.04 0 20.48-5.12 40.96-20.48 56.32-10.24 15.36-10.24 35.84 0 51.2 56.32 56.32 128 102.4 199.68 122.88 20.48 5.12 40.96-5.12 46.08-25.6C440.32 896 471.04 870.4 512 870.4s71.68 25.6 87.04 61.44c5.12 15.36 20.48 25.6 35.84 25.6h10.24c76.8-20.48 148.48-66.56 204.8-122.88 15.36-15.36 15.36-35.84 0-51.2s-20.48-35.84-20.48-56.32c0-51.2 40.96-92.16 92.16-92.16h10.24c20.48 0 35.84-10.24 40.96-30.72 5.12-30.72 10.24-61.44 10.24-92.16-5.12-46.08-15.36-92.16-25.6-138.24zM896 558.08C814.08 568.32 747.52 640 747.52 721.92c0 25.6 5.12 51.2 20.48 76.8-35.84 30.72-71.68 56.32-117.76 71.68-30.72-51.2-81.92-81.92-143.36-81.92S394.24 819.2 363.52 870.4c-40.96-15.36-81.92-40.96-117.76-71.68 10.24-25.6 20.48-51.2 20.48-76.8 0-87.04-66.56-153.6-148.48-163.84 0-15.36-5.12-30.72-5.12-46.08 0-30.72 5.12-61.44 10.24-92.16 92.16-15.36 148.48-81.92 148.48-163.84 0-15.36 0-30.72-5.12-46.08 35.84-25.6 71.68-51.2 112.64-66.56 35.84 40.96 81.92 66.56 133.12 66.56s97.28-25.6 128-61.44c40.96 15.36 81.92 35.84 112.64 66.56-5.12 15.36-5.12 30.72-5.12 46.08 0 81.92 56.32 148.48 138.24 163.84 5.12 30.72 10.24 61.44 10.24 92.16 5.12 10.24 5.12 25.6 0 40.96z" fill="#333333" p-id="2259"></path><path d="M512 322.56c-102.4 0-189.44 87.04-189.44 189.44S404.48 701.44 512 701.44c102.4 0 189.44-81.92 189.44-189.44 0-102.4-87.04-189.44-189.44-189.44z m0 302.08c-61.44 0-112.64-51.2-112.64-112.64S450.56 399.36 512 399.36 624.64 450.56 624.64 512 573.44 624.64 512 624.64z" p-id="2260"></path></svg>